<?xml version="1.0" encoding="utf-8"?>
<svg width="800px" height="800px" viewBox="0 0 48 48" fill="none" xmlns="http://www.w3.org/2000/svg">
  <!-- Background -->
  <rect width="48" height="48" fill="#D5D0DF" fill-opacity="0.1"/>
  
  <!-- Tongkat sihir (batang utama) -->
  <line x1="8" y1="40" x2="25" y2="23" stroke="#66455A" stroke-width="3" stroke-linecap="round"/>
  
  <!-- Bentuk G sebagai ujung tongkat -->
  <g transform="translate(22, 8)">
    <!-- Bagian luar G -->
    <path d="M12 4 C16 4 20 8 20 12 C20 16 16 20 12 20 L8 20 L8 16 L12 16 L12 14 L10 14 L10 12 L12 12 C14 12 16 10 16 8 C16 6 14 4 12 4 L4 4 C2 4 0 6 0 8 L0 16 C0 18 2 20 4 20 L8 20" 
          stroke="#C6AD7E" 
          stroke-width="2.5" 
          fill="#B4A2B5" 
          stroke-linecap="round" 
          stroke-linejoin="round"/>
  </g>
  
  <!-- Efek sihir/sparkles di sekitar G -->
  <g fill="#C6AD7E">
    <!-- Bintang kecil -->
    <circle cx="38" cy="12" r="1.5" fill="#D5D0DF"/>
    <circle cx="42" cy="18" r="1" fill="#C6AD7E"/>
    <circle cx="40" cy="25" r="1.2" fill="#B4A2B5"/>
    <circle cx="35" cy="30" r="0.8" fill="#D5D0DF"/>
  </g>
  
  <!-- Sparkle crosses -->
  <g stroke="#C6AD7E" stroke-width="1.5" stroke-linecap="round">
    <path d="M36 14 L38 14 M37 13 L37 15"/>
    <path d="M41 22 L43 22 M42 21 L42 23"/>
    <path d="M37 32 L39 32 M38 31 L38 33"/>
  </g>
  
  <!-- Grip/pegangan tongkat -->
  <g transform="translate(6, 38)">
    <rect x="0" y="0" width="6" height="2" rx="1" fill="#282130"/>
    <rect x="0" y="3" width="6" height="2" rx="1" fill="#66455A"/>
  </g>
  
  <!-- Efek cahaya di sepanjang tongkat -->
  <line x1="10" y1="38" x2="23" y2="25" stroke="#D5D0DF" stroke-width="1" opacity="0.6" stroke-linecap="round"/>
  
  <!-- Ornamen tambahan pada tongkat -->
  <circle cx="15" cy="33" r="1" fill="#B4A2B5"/>
  <circle cx="19" cy="29" r="0.8" fill="#C6AD7E"/>
</svg>
